<svg id="Layer_1" data-name="Layer 1" xmlns="http://www.w3.org/2000/svg" viewBox="0 0 256 256"><defs><style>.cls-1{fill:#fff;}</style></defs><circle cx="128" cy="128" r="120.22"/><path d="M128,254.2A126.2,126.2,0,1,1,254.2,128,126.35,126.35,0,0,1,128,254.2ZM128,3.59A124.41,124.41,0,1,0,252.41,128,124.55,124.55,0,0,0,128,3.59Z"/><path class="cls-1" d="M82.89,114.38V90.07h21l0,0,0,0,.69-.94.06-.07.2-.26.51-.65.08-.11,0,0,.76-.94,0,0,.15-.18.54-.64.14-.16.13-.15.68-.76,0,0,.1-.12.76-.81v0l.08-.08.82-.84,0,0,.86-.85,0,0,.78-.74.12-.12h0l.12-.11.79-.71h0l0,0,.07-.06.72-.63.35-.29.06-.06.32-.27.32-.26.3-.25.65-.51.3-.24,0,0,.33-.25.33-.25.18-.14.15-.11.33-.25.34-.24.34-.24.33-.24.34-.24.68-.45h0l.35-.23.35-.23.35-.22.34-.22.06,0,.55-.34.1-.06.35-.22.72-.42.35-.21.73-.41.36-.2H57.08v41.69ZM57.08,183.31h66.24l-.06,0-.11-.06-.9-.51h0l-.12-.07-.24-.14-.71-.43L121,182l-.19-.11-.69-.44-.35-.23-.35-.22-.34-.23-.26-.17-.08-.06-.34-.23-.34-.24-.3-.21,0,0-.33-.23-.34-.25-.09-.06-.51-.39-.06,0-.32-.24-.33-.25-.33-.26-.32-.25-.32-.26-.26-.21-.06,0-.32-.27-.31-.26h0l-.31-.26-.31-.26-.31-.28-.39-.34-.59-.53-.31-.29-.57-.53-.26-.25-.29-.29-.3-.29-.09-.09-.49-.49-.29-.3-.57-.59-.28-.3,0-.06-.78-.86-.28-.31-.27-.31-.27-.31-.27-.31v0l-.25-.3-.27-.32-.26-.32-.26-.32-.25-.33-.26-.32-.5-.66-.25-.33,0,0-.47-.64H82.89V140.67H57.08Z"/><path class="cls-1" d="M120.24,114.38c4.88-15,18-25.73,34.43-25.73,12.65,0,22.13,5.53,31,13.75L198.13,88c-10.59-10.12-22.91-17.23-43.3-17.23-28.5,0-49.81,18.65-55.52,43.59ZM154,185.21c20.7,0,33.34-7.59,44.88-19.6L186.44,153c-9.48,8.85-18.18,14.22-31.77,14.22-16.83,0-30-11.09-34.65-26.52H99C104.36,166.36,126.12,185.21,154,185.21Z"/><path class="cls-1" d="M126.07,125.16a3.16,3.16,0,0,0-1-.73,3.23,3.23,0,0,0-1.29-.26,3.1,3.1,0,0,0-1.31.26,3,3,0,0,0-1,.71,3.24,3.24,0,0,0-.65,1.07,3.43,3.43,0,0,0-.24,1.28v0a3.48,3.48,0,0,0,.24,1.29,3,3,0,0,0,.67,1.07,3.07,3.07,0,0,0,2.33,1,3.07,3.07,0,0,0,1.29-.26,3,3,0,0,0,1-.71,3.29,3.29,0,0,0,.65-1.06,3.52,3.52,0,0,0,.24-1.29v0a3.53,3.53,0,0,0-.24-1.3A3,3,0,0,0,126.07,125.16Z"/><path class="cls-1" d="M96.92,125.16a3.16,3.16,0,0,0-1-.73,3.23,3.23,0,0,0-1.29-.26,3.1,3.1,0,0,0-1.31.26,3,3,0,0,0-1,.71,3.56,3.56,0,0,0-.89,2.35v0a3.48,3.48,0,0,0,.24,1.29,3.18,3.18,0,0,0,.67,1.07,3.07,3.07,0,0,0,2.33,1,3.07,3.07,0,0,0,1.29-.26,3,3,0,0,0,1-.71,3.51,3.51,0,0,0,.66-1.06,3.73,3.73,0,0,0,.23-1.29v0a3.74,3.74,0,0,0-.23-1.3A3.21,3.21,0,0,0,96.92,125.16Z"/><path class="cls-1" d="M57.08,118.83v17.39h91.27V118.83ZM84.89,124,79,130.81h5.87v2.06H76v-1.79l5.88-6.84H76.18v-2.06h8.71Zm15.4,3.56a5.31,5.31,0,0,1-.43,2.14,5.4,5.4,0,0,1-1.18,1.75,5.54,5.54,0,0,1-1.8,1.19,5.9,5.9,0,0,1-2.28.44,5.83,5.83,0,0,1-2.28-.44,5.67,5.67,0,0,1-1.79-1.17,5.26,5.26,0,0,1-1.18-1.74,5.48,5.48,0,0,1-.42-2.14v0a5.5,5.5,0,0,1,.43-2.15,5.57,5.57,0,0,1,1.18-1.75,5.48,5.48,0,0,1,1.81-1.19,6.1,6.1,0,0,1,4.55,0,5.67,5.67,0,0,1,1.79,1.17,5.11,5.11,0,0,1,1.18,1.74,5.48,5.48,0,0,1,.42,2.14Zm13.41,5.34h-2.35v-4.29H107v4.29h-2.35V122.18H107v4.23h4.33v-4.23h2.35Zm15.74-5.34a5.49,5.49,0,0,1-.43,2.14,5.4,5.4,0,0,1-1.18,1.75,5.54,5.54,0,0,1-1.8,1.19,5.9,5.9,0,0,1-2.28.44,5.83,5.83,0,0,1-2.28-.44,5.67,5.67,0,0,1-1.79-1.17,5.11,5.11,0,0,1-1.18-1.74,5.48,5.48,0,0,1-.42-2.14v0a5.5,5.5,0,0,1,.43-2.15,5.4,5.4,0,0,1,1.18-1.75,5.54,5.54,0,0,1,1.8-1.19,5.91,5.91,0,0,1,2.29-.44,5.81,5.81,0,0,1,2.27.44,5.67,5.67,0,0,1,1.79,1.17,5.11,5.11,0,0,1,1.18,1.74,5.48,5.48,0,0,1,.42,2.14Z"/></svg>